<mxfile host="app.diagrams.net" modified="2020-09-29T14:45:58.295Z" agent="5.0 (Windows NT 10.0; Win64; x64) AppleWebKit/537.36 (KHTML, like Gecko) Chrome/85.0.4183.121 Safari/537.36" etag="VUdTy8Y2SOt0VxZ7lqQi" version="13.7.6" type="github">
  <diagram id="C5RBs43oDa-KdzZeNtuy" name="Page-1">
    <mxGraphModel dx="1673" dy="2103" grid="1" gridSize="10" guides="1" tooltips="1" connect="1" arrows="1" fold="1" page="1" pageScale="1" pageWidth="827" pageHeight="1169" math="0" shadow="0">
      <root>
        <mxCell id="WIyWlLk6GJQsqaUBKTNV-0" />
        <mxCell id="WIyWlLk6GJQsqaUBKTNV-1" parent="WIyWlLk6GJQsqaUBKTNV-0" />
        <mxCell id="eg5-Ky1S5H-kkHxy2FLW-71" value="" style="whiteSpace=wrap;html=1;aspect=fixed;fontSize=11;align=left;" vertex="1" parent="WIyWlLk6GJQsqaUBKTNV-1">
          <mxGeometry x="31" y="-10" width="1210" height="1210" as="geometry" />
        </mxCell>
        <mxCell id="eg5-Ky1S5H-kkHxy2FLW-9" style="edgeStyle=orthogonalEdgeStyle;rounded=0;orthogonalLoop=1;jettySize=auto;html=1;entryX=0;entryY=0.5;entryDx=0;entryDy=0;entryPerimeter=0;endArrow=none;endFill=0;strokeWidth=4;fillColor=#dae8fc;strokeColor=#6c8ebf;" edge="1" parent="WIyWlLk6GJQsqaUBKTNV-1" source="eg5-Ky1S5H-kkHxy2FLW-0" target="eg5-Ky1S5H-kkHxy2FLW-5">
          <mxGeometry relative="1" as="geometry" />
        </mxCell>
        <mxCell id="eg5-Ky1S5H-kkHxy2FLW-0" value="" style="strokeWidth=2;html=1;shape=mxgraph.flowchart.start_2;whiteSpace=wrap;" vertex="1" parent="WIyWlLk6GJQsqaUBKTNV-1">
          <mxGeometry x="170" y="230" width="40" height="40" as="geometry" />
        </mxCell>
        <mxCell id="eg5-Ky1S5H-kkHxy2FLW-8" style="edgeStyle=orthogonalEdgeStyle;rounded=0;orthogonalLoop=1;jettySize=auto;html=1;endArrow=none;endFill=0;fillColor=#dae8fc;strokeColor=#6c8ebf;strokeWidth=4;" edge="1" parent="WIyWlLk6GJQsqaUBKTNV-1" source="eg5-Ky1S5H-kkHxy2FLW-1" target="eg5-Ky1S5H-kkHxy2FLW-7">
          <mxGeometry relative="1" as="geometry" />
        </mxCell>
        <mxCell id="eg5-Ky1S5H-kkHxy2FLW-1" value="" style="strokeWidth=2;html=1;shape=mxgraph.flowchart.start_2;whiteSpace=wrap;" vertex="1" parent="WIyWlLk6GJQsqaUBKTNV-1">
          <mxGeometry x="170" y="500" width="40" height="40" as="geometry" />
        </mxCell>
        <mxCell id="eg5-Ky1S5H-kkHxy2FLW-2" value="The master branch will alwys reflect the most current production-ready sdtate of the software" style="text;html=1;strokeColor=none;fillColor=none;align=left;verticalAlign=middle;whiteSpace=wrap;rounded=0;" vertex="1" parent="WIyWlLk6GJQsqaUBKTNV-1">
          <mxGeometry x="962.84" y="550" width="190" height="20" as="geometry" />
        </mxCell>
        <mxCell id="eg5-Ky1S5H-kkHxy2FLW-10" style="edgeStyle=orthogonalEdgeStyle;rounded=0;orthogonalLoop=1;jettySize=auto;html=1;entryX=0;entryY=0.5;entryDx=0;entryDy=0;entryPerimeter=0;endArrow=none;endFill=0;strokeWidth=4;fillColor=#f5f5f5;strokeColor=#666666;" edge="1" parent="WIyWlLk6GJQsqaUBKTNV-1" source="eg5-Ky1S5H-kkHxy2FLW-5" target="eg5-Ky1S5H-kkHxy2FLW-11">
          <mxGeometry relative="1" as="geometry">
            <mxPoint x="350" y="250.0000000000001" as="targetPoint" />
          </mxGeometry>
        </mxCell>
        <mxCell id="eg5-Ky1S5H-kkHxy2FLW-5" value="" style="strokeWidth=2;html=1;shape=mxgraph.flowchart.start_2;whiteSpace=wrap;" vertex="1" parent="WIyWlLk6GJQsqaUBKTNV-1">
          <mxGeometry x="270" y="230" width="40" height="40" as="geometry" />
        </mxCell>
        <mxCell id="eg5-Ky1S5H-kkHxy2FLW-46" style="edgeStyle=orthogonalEdgeStyle;rounded=0;orthogonalLoop=1;jettySize=auto;html=1;entryX=0;entryY=0.5;entryDx=0;entryDy=0;entryPerimeter=0;strokeWidth=4;endArrow=none;endFill=0;fillColor=#dae8fc;strokeColor=#6c8ebf;" edge="1" parent="WIyWlLk6GJQsqaUBKTNV-1" source="eg5-Ky1S5H-kkHxy2FLW-7" target="eg5-Ky1S5H-kkHxy2FLW-43">
          <mxGeometry relative="1" as="geometry" />
        </mxCell>
        <mxCell id="eg5-Ky1S5H-kkHxy2FLW-7" value="" style="strokeWidth=2;html=1;shape=mxgraph.flowchart.start_2;whiteSpace=wrap;" vertex="1" parent="WIyWlLk6GJQsqaUBKTNV-1">
          <mxGeometry x="250" y="500" width="40" height="40" as="geometry" />
        </mxCell>
        <mxCell id="eg5-Ky1S5H-kkHxy2FLW-32" style="edgeStyle=orthogonalEdgeStyle;rounded=0;orthogonalLoop=1;jettySize=auto;html=1;entryX=0;entryY=0.5;entryDx=0;entryDy=0;entryPerimeter=0;endArrow=none;endFill=0;strokeWidth=4;fillColor=#f5f5f5;strokeColor=#666666;" edge="1" parent="WIyWlLk6GJQsqaUBKTNV-1" source="eg5-Ky1S5H-kkHxy2FLW-11" target="eg5-Ky1S5H-kkHxy2FLW-30">
          <mxGeometry relative="1" as="geometry" />
        </mxCell>
        <mxCell id="eg5-Ky1S5H-kkHxy2FLW-11" value="" style="strokeWidth=2;html=1;shape=mxgraph.flowchart.start_2;whiteSpace=wrap;" vertex="1" parent="WIyWlLk6GJQsqaUBKTNV-1">
          <mxGeometry x="430" y="230" width="40" height="40" as="geometry" />
        </mxCell>
        <mxCell id="eg5-Ky1S5H-kkHxy2FLW-14" value="Develop" style="text;html=1;strokeColor=none;fillColor=none;align=center;verticalAlign=middle;whiteSpace=wrap;rounded=0;fontStyle=1" vertex="1" parent="WIyWlLk6GJQsqaUBKTNV-1">
          <mxGeometry x="865" y="240" width="40" height="20" as="geometry" />
        </mxCell>
        <mxCell id="eg5-Ky1S5H-kkHxy2FLW-15" value="The Develop branch refletes the lasted development for the next release.&amp;nbsp;" style="text;html=1;strokeColor=none;fillColor=none;align=left;verticalAlign=middle;whiteSpace=wrap;rounded=0;" vertex="1" parent="WIyWlLk6GJQsqaUBKTNV-1">
          <mxGeometry x="850" y="280" width="158.16" height="20" as="geometry" />
        </mxCell>
        <mxCell id="eg5-Ky1S5H-kkHxy2FLW-17" value="Feature branches work like feature branches in the Github flow" style="text;html=1;strokeColor=none;fillColor=none;align=left;verticalAlign=middle;whiteSpace=wrap;rounded=0;" vertex="1" parent="WIyWlLk6GJQsqaUBKTNV-1">
          <mxGeometry x="284" y="100" width="156" height="20" as="geometry" />
        </mxCell>
        <mxCell id="eg5-Ky1S5H-kkHxy2FLW-18" value="Release branches help to prepare the work on develop, that will be included in the nest release version" style="text;html=1;strokeColor=none;fillColor=none;align=left;verticalAlign=middle;whiteSpace=wrap;rounded=0;" vertex="1" parent="WIyWlLk6GJQsqaUBKTNV-1">
          <mxGeometry x="234" y="356.25" width="196" height="67.5" as="geometry" />
        </mxCell>
        <mxCell id="eg5-Ky1S5H-kkHxy2FLW-19" value="Hotfix branches let us make critical changes to the master branch wihtout impeding work on develop or the next release." style="text;html=1;strokeColor=none;fillColor=none;align=left;verticalAlign=middle;whiteSpace=wrap;rounded=0;" vertex="1" parent="WIyWlLk6GJQsqaUBKTNV-1">
          <mxGeometry x="640" y="470" width="185" height="20" as="geometry" />
        </mxCell>
        <mxCell id="eg5-Ky1S5H-kkHxy2FLW-24" style="edgeStyle=orthogonalEdgeStyle;rounded=0;orthogonalLoop=1;jettySize=auto;html=1;entryX=0;entryY=0.5;entryDx=0;entryDy=0;entryPerimeter=0;endArrow=none;endFill=0;strokeWidth=4;fillColor=#f5f5f5;strokeColor=#666666;" edge="1" parent="WIyWlLk6GJQsqaUBKTNV-1" source="eg5-Ky1S5H-kkHxy2FLW-20" target="eg5-Ky1S5H-kkHxy2FLW-21">
          <mxGeometry relative="1" as="geometry" />
        </mxCell>
        <mxCell id="eg5-Ky1S5H-kkHxy2FLW-20" value="" style="strokeWidth=2;html=1;shape=mxgraph.flowchart.start_2;whiteSpace=wrap;" vertex="1" parent="WIyWlLk6GJQsqaUBKTNV-1">
          <mxGeometry x="230" y="140" width="40" height="40" as="geometry" />
        </mxCell>
        <mxCell id="eg5-Ky1S5H-kkHxy2FLW-25" style="edgeStyle=orthogonalEdgeStyle;rounded=0;orthogonalLoop=1;jettySize=auto;html=1;entryX=0;entryY=0.5;entryDx=0;entryDy=0;entryPerimeter=0;endArrow=none;endFill=0;strokeWidth=4;fillColor=#f5f5f5;strokeColor=#666666;" edge="1" parent="WIyWlLk6GJQsqaUBKTNV-1" source="eg5-Ky1S5H-kkHxy2FLW-21" target="eg5-Ky1S5H-kkHxy2FLW-22">
          <mxGeometry relative="1" as="geometry" />
        </mxCell>
        <mxCell id="eg5-Ky1S5H-kkHxy2FLW-21" value="" style="strokeWidth=2;html=1;shape=mxgraph.flowchart.start_2;whiteSpace=wrap;" vertex="1" parent="WIyWlLk6GJQsqaUBKTNV-1">
          <mxGeometry x="320" y="140" width="40" height="40" as="geometry" />
        </mxCell>
        <mxCell id="eg5-Ky1S5H-kkHxy2FLW-22" value="" style="strokeWidth=2;html=1;shape=mxgraph.flowchart.start_2;whiteSpace=wrap;" vertex="1" parent="WIyWlLk6GJQsqaUBKTNV-1">
          <mxGeometry x="400" y="140" width="40" height="40" as="geometry" />
        </mxCell>
        <mxCell id="eg5-Ky1S5H-kkHxy2FLW-27" value="" style="endArrow=none;html=1;entryX=0;entryY=0.75;entryDx=0;entryDy=0;entryPerimeter=0;endFill=0;strokeWidth=4;fillColor=#f5f5f5;strokeColor=#666666;" edge="1" parent="WIyWlLk6GJQsqaUBKTNV-1" target="eg5-Ky1S5H-kkHxy2FLW-20">
          <mxGeometry width="50" height="50" relative="1" as="geometry">
            <mxPoint x="190" y="230" as="sourcePoint" />
            <mxPoint x="240" y="180" as="targetPoint" />
          </mxGeometry>
        </mxCell>
        <mxCell id="eg5-Ky1S5H-kkHxy2FLW-28" value="" style="endArrow=none;html=1;exitX=0.639;exitY=0.99;exitDx=0;exitDy=0;exitPerimeter=0;entryX=0.5;entryY=0;entryDx=0;entryDy=0;entryPerimeter=0;endFill=0;strokeWidth=4;fillColor=#f5f5f5;strokeColor=#666666;" edge="1" parent="WIyWlLk6GJQsqaUBKTNV-1" source="eg5-Ky1S5H-kkHxy2FLW-22" target="eg5-Ky1S5H-kkHxy2FLW-11">
          <mxGeometry width="50" height="50" relative="1" as="geometry">
            <mxPoint x="450" y="200" as="sourcePoint" />
            <mxPoint x="490" y="210" as="targetPoint" />
          </mxGeometry>
        </mxCell>
        <mxCell id="eg5-Ky1S5H-kkHxy2FLW-29" value="Feature" style="text;html=1;strokeColor=none;fillColor=none;align=center;verticalAlign=middle;whiteSpace=wrap;rounded=0;fontStyle=1" vertex="1" parent="WIyWlLk6GJQsqaUBKTNV-1">
          <mxGeometry x="450" y="150" width="40" height="20" as="geometry" />
        </mxCell>
        <mxCell id="eg5-Ky1S5H-kkHxy2FLW-33" style="edgeStyle=orthogonalEdgeStyle;rounded=0;orthogonalLoop=1;jettySize=auto;html=1;entryX=0;entryY=0.5;entryDx=0;entryDy=0;entryPerimeter=0;endArrow=none;endFill=0;fillColor=#f5f5f5;strokeColor=#666666;strokeWidth=4;" edge="1" parent="WIyWlLk6GJQsqaUBKTNV-1" source="eg5-Ky1S5H-kkHxy2FLW-30" target="eg5-Ky1S5H-kkHxy2FLW-31">
          <mxGeometry relative="1" as="geometry" />
        </mxCell>
        <mxCell id="eg5-Ky1S5H-kkHxy2FLW-30" value="" style="strokeWidth=2;html=1;shape=mxgraph.flowchart.start_2;whiteSpace=wrap;" vertex="1" parent="WIyWlLk6GJQsqaUBKTNV-1">
          <mxGeometry x="530" y="230" width="40" height="40" as="geometry" />
        </mxCell>
        <mxCell id="eg5-Ky1S5H-kkHxy2FLW-31" value="" style="strokeWidth=2;html=1;shape=mxgraph.flowchart.start_2;whiteSpace=wrap;" vertex="1" parent="WIyWlLk6GJQsqaUBKTNV-1">
          <mxGeometry x="810" y="230" width="40" height="40" as="geometry" />
        </mxCell>
        <mxCell id="eg5-Ky1S5H-kkHxy2FLW-38" style="edgeStyle=orthogonalEdgeStyle;rounded=0;orthogonalLoop=1;jettySize=auto;html=1;entryX=0;entryY=0.5;entryDx=0;entryDy=0;entryPerimeter=0;endArrow=none;endFill=0;strokeWidth=4;fillColor=#dae8fc;strokeColor=#6c8ebf;opacity=50;" edge="1" parent="WIyWlLk6GJQsqaUBKTNV-1" source="eg5-Ky1S5H-kkHxy2FLW-35" target="eg5-Ky1S5H-kkHxy2FLW-36">
          <mxGeometry relative="1" as="geometry" />
        </mxCell>
        <mxCell id="eg5-Ky1S5H-kkHxy2FLW-35" value="" style="strokeWidth=2;html=1;shape=mxgraph.flowchart.start_2;whiteSpace=wrap;opacity=50;" vertex="1" parent="WIyWlLk6GJQsqaUBKTNV-1">
          <mxGeometry x="310" y="310" width="40" height="40" as="geometry" />
        </mxCell>
        <mxCell id="eg5-Ky1S5H-kkHxy2FLW-39" style="edgeStyle=orthogonalEdgeStyle;rounded=0;orthogonalLoop=1;jettySize=auto;html=1;entryX=0;entryY=0.5;entryDx=0;entryDy=0;entryPerimeter=0;endArrow=none;endFill=0;strokeWidth=4;fillColor=#dae8fc;strokeColor=#6c8ebf;opacity=50;" edge="1" parent="WIyWlLk6GJQsqaUBKTNV-1" source="eg5-Ky1S5H-kkHxy2FLW-36" target="eg5-Ky1S5H-kkHxy2FLW-37">
          <mxGeometry relative="1" as="geometry" />
        </mxCell>
        <mxCell id="eg5-Ky1S5H-kkHxy2FLW-36" value="" style="strokeWidth=2;html=1;shape=mxgraph.flowchart.start_2;whiteSpace=wrap;opacity=50;" vertex="1" parent="WIyWlLk6GJQsqaUBKTNV-1">
          <mxGeometry x="374" y="310" width="40" height="40" as="geometry" />
        </mxCell>
        <mxCell id="eg5-Ky1S5H-kkHxy2FLW-37" value="" style="strokeWidth=2;html=1;shape=mxgraph.flowchart.start_2;whiteSpace=wrap;opacity=50;" vertex="1" parent="WIyWlLk6GJQsqaUBKTNV-1">
          <mxGeometry x="440" y="310" width="40" height="40" as="geometry" />
        </mxCell>
        <mxCell id="eg5-Ky1S5H-kkHxy2FLW-40" value="" style="endArrow=none;html=1;entryX=0.145;entryY=0.855;entryDx=0;entryDy=0;entryPerimeter=0;exitX=0.855;exitY=0.145;exitDx=0;exitDy=0;exitPerimeter=0;endFill=0;fontSize=11;strokeWidth=4;fillColor=#dae8fc;strokeColor=#6c8ebf;opacity=50;" edge="1" parent="WIyWlLk6GJQsqaUBKTNV-1" source="eg5-Ky1S5H-kkHxy2FLW-37" target="eg5-Ky1S5H-kkHxy2FLW-30">
          <mxGeometry width="50" height="50" relative="1" as="geometry">
            <mxPoint x="530" y="330" as="sourcePoint" />
            <mxPoint x="600" y="300" as="targetPoint" />
          </mxGeometry>
        </mxCell>
        <mxCell id="eg5-Ky1S5H-kkHxy2FLW-41" value="" style="endArrow=none;html=1;entryX=0.145;entryY=0.145;entryDx=0;entryDy=0;entryPerimeter=0;exitX=0.5;exitY=1;exitDx=0;exitDy=0;exitPerimeter=0;endFill=0;strokeWidth=4;fillColor=#dae8fc;strokeColor=#6c8ebf;opacity=50;" edge="1" parent="WIyWlLk6GJQsqaUBKTNV-1" source="eg5-Ky1S5H-kkHxy2FLW-5" target="eg5-Ky1S5H-kkHxy2FLW-35">
          <mxGeometry width="50" height="50" relative="1" as="geometry">
            <mxPoint x="235" y="310" as="sourcePoint" />
            <mxPoint x="305" y="280" as="targetPoint" />
          </mxGeometry>
        </mxCell>
        <mxCell id="eg5-Ky1S5H-kkHxy2FLW-42" value="Release" style="text;html=1;strokeColor=none;fillColor=none;align=center;verticalAlign=middle;whiteSpace=wrap;rounded=0;fontStyle=1" vertex="1" parent="WIyWlLk6GJQsqaUBKTNV-1">
          <mxGeometry x="252" y="323" width="40" height="20" as="geometry" />
        </mxCell>
        <mxCell id="eg5-Ky1S5H-kkHxy2FLW-49" style="edgeStyle=orthogonalEdgeStyle;rounded=0;orthogonalLoop=1;jettySize=auto;html=1;entryX=0;entryY=0.5;entryDx=0;entryDy=0;entryPerimeter=0;endArrow=none;endFill=0;exitX=1;exitY=0.5;exitDx=0;exitDy=0;exitPerimeter=0;fillColor=#d5e8d4;strokeColor=#82b366;strokeWidth=4;" edge="1" parent="WIyWlLk6GJQsqaUBKTNV-1" source="eg5-Ky1S5H-kkHxy2FLW-43" target="eg5-Ky1S5H-kkHxy2FLW-44">
          <mxGeometry relative="1" as="geometry">
            <mxPoint x="693" y="520" as="sourcePoint" />
          </mxGeometry>
        </mxCell>
        <mxCell id="eg5-Ky1S5H-kkHxy2FLW-43" value="" style="strokeWidth=2;html=1;shape=mxgraph.flowchart.start_2;whiteSpace=wrap;" vertex="1" parent="WIyWlLk6GJQsqaUBKTNV-1">
          <mxGeometry x="504" y="500" width="40" height="40" as="geometry" />
        </mxCell>
        <mxCell id="eg5-Ky1S5H-kkHxy2FLW-44" value="" style="strokeWidth=2;html=1;shape=mxgraph.flowchart.start_2;whiteSpace=wrap;" vertex="1" parent="WIyWlLk6GJQsqaUBKTNV-1">
          <mxGeometry x="922.84" y="500" width="40" height="40" as="geometry" />
        </mxCell>
        <mxCell id="eg5-Ky1S5H-kkHxy2FLW-47" value="" style="endArrow=none;html=1;entryX=0.333;entryY=-0.05;entryDx=0;entryDy=0;entryPerimeter=0;exitX=0.855;exitY=0.855;exitDx=0;exitDy=0;exitPerimeter=0;endFill=0;strokeWidth=4;fillColor=#dae8fc;strokeColor=#6c8ebf;opacity=50;" edge="1" parent="WIyWlLk6GJQsqaUBKTNV-1" source="eg5-Ky1S5H-kkHxy2FLW-37" target="eg5-Ky1S5H-kkHxy2FLW-43">
          <mxGeometry width="50" height="50" relative="1" as="geometry">
            <mxPoint x="494.20000000000005" y="325.79999999999995" as="sourcePoint" />
            <mxPoint x="554.8800000000001" y="279.9200000000001" as="targetPoint" />
          </mxGeometry>
        </mxCell>
        <mxCell id="eg5-Ky1S5H-kkHxy2FLW-48" value="Master" style="text;html=1;strokeColor=none;fillColor=none;align=center;verticalAlign=middle;whiteSpace=wrap;rounded=0;fontStyle=1" vertex="1" parent="WIyWlLk6GJQsqaUBKTNV-1">
          <mxGeometry x="972.84" y="510" width="40" height="20" as="geometry" />
        </mxCell>
        <mxCell id="eg5-Ky1S5H-kkHxy2FLW-52" style="edgeStyle=orthogonalEdgeStyle;rounded=0;orthogonalLoop=1;jettySize=auto;html=1;entryX=0;entryY=0.5;entryDx=0;entryDy=0;entryPerimeter=0;endArrow=none;endFill=0;fillColor=#d5e8d4;strokeColor=#82b366;strokeWidth=4;opacity=50;" edge="1" parent="WIyWlLk6GJQsqaUBKTNV-1" source="eg5-Ky1S5H-kkHxy2FLW-50" target="eg5-Ky1S5H-kkHxy2FLW-51">
          <mxGeometry relative="1" as="geometry" />
        </mxCell>
        <mxCell id="eg5-Ky1S5H-kkHxy2FLW-50" value="" style="strokeWidth=2;html=1;shape=mxgraph.flowchart.start_2;whiteSpace=wrap;opacity=50;" vertex="1" parent="WIyWlLk6GJQsqaUBKTNV-1">
          <mxGeometry x="640" y="403.75" width="40" height="40" as="geometry" />
        </mxCell>
        <mxCell id="eg5-Ky1S5H-kkHxy2FLW-51" value="" style="strokeWidth=2;html=1;shape=mxgraph.flowchart.start_2;whiteSpace=wrap;opacity=50;" vertex="1" parent="WIyWlLk6GJQsqaUBKTNV-1">
          <mxGeometry x="740" y="403.75" width="40" height="40" as="geometry" />
        </mxCell>
        <mxCell id="eg5-Ky1S5H-kkHxy2FLW-53" value="" style="endArrow=none;html=1;entryX=0.145;entryY=0.145;entryDx=0;entryDy=0;entryPerimeter=0;exitX=1;exitY=0.5;exitDx=0;exitDy=0;exitPerimeter=0;endFill=0;fillColor=#d5e8d4;strokeColor=#82b366;strokeWidth=4;opacity=50;" edge="1" parent="WIyWlLk6GJQsqaUBKTNV-1" source="eg5-Ky1S5H-kkHxy2FLW-51" target="eg5-Ky1S5H-kkHxy2FLW-44">
          <mxGeometry width="50" height="50" relative="1" as="geometry">
            <mxPoint x="842.84" y="418.0999999999999" as="sourcePoint" />
            <mxPoint x="891.9599999999999" y="521.8999999999997" as="targetPoint" />
          </mxGeometry>
        </mxCell>
        <mxCell id="eg5-Ky1S5H-kkHxy2FLW-54" value="" style="endArrow=none;html=1;entryX=0;entryY=0.5;entryDx=0;entryDy=0;entryPerimeter=0;exitX=0.855;exitY=0.145;exitDx=0;exitDy=0;exitPerimeter=0;endFill=0;fillColor=#d5e8d4;strokeColor=#82b366;strokeWidth=4;opacity=50;" edge="1" parent="WIyWlLk6GJQsqaUBKTNV-1" source="eg5-Ky1S5H-kkHxy2FLW-43" target="eg5-Ky1S5H-kkHxy2FLW-50">
          <mxGeometry width="50" height="50" relative="1" as="geometry">
            <mxPoint x="681.16" y="500.52" as="sourcePoint" />
            <mxPoint x="687.7200000000001" y="279.9200000000001" as="targetPoint" />
          </mxGeometry>
        </mxCell>
        <mxCell id="eg5-Ky1S5H-kkHxy2FLW-56" value="HotFix" style="text;html=1;strokeColor=none;fillColor=none;align=center;verticalAlign=middle;whiteSpace=wrap;rounded=0;fontStyle=1" vertex="1" parent="WIyWlLk6GJQsqaUBKTNV-1">
          <mxGeometry x="680" y="370" width="40" height="20" as="geometry" />
        </mxCell>
        <mxCell id="eg5-Ky1S5H-kkHxy2FLW-57" value="" style="endArrow=none;html=1;entryX=0.5;entryY=1;entryDx=0;entryDy=0;entryPerimeter=0;endFill=0;strokeWidth=4;fillColor=#d5e8d4;strokeColor=#82b366;opacity=50;exitX=0.5;exitY=0;exitDx=0;exitDy=0;exitPerimeter=0;" edge="1" parent="WIyWlLk6GJQsqaUBKTNV-1" source="eg5-Ky1S5H-kkHxy2FLW-51" target="eg5-Ky1S5H-kkHxy2FLW-31">
          <mxGeometry width="50" height="50" relative="1" as="geometry">
            <mxPoint x="710" y="350" as="sourcePoint" />
            <mxPoint x="757.4800000000002" y="303.67999999999984" as="targetPoint" />
          </mxGeometry>
        </mxCell>
        <mxCell id="eg5-Ky1S5H-kkHxy2FLW-60" value="v.1.2" style="text;html=1;strokeColor=none;fillColor=none;align=center;verticalAlign=middle;whiteSpace=wrap;rounded=0;fontStyle=1" vertex="1" parent="WIyWlLk6GJQsqaUBKTNV-1">
          <mxGeometry x="475" y="480" width="40" height="20" as="geometry" />
        </mxCell>
        <mxCell id="eg5-Ky1S5H-kkHxy2FLW-62" value="&lt;font style=&quot;font-size: 11px&quot;&gt;We can safely merge and bug fixes from the release branch back into develop and then delete the release branch&lt;/font&gt;" style="text;html=1;strokeColor=none;fillColor=none;align=left;verticalAlign=middle;whiteSpace=wrap;rounded=0;fontStyle=0;fontSize=10;" vertex="1" parent="WIyWlLk6GJQsqaUBKTNV-1">
          <mxGeometry x="530" y="302" width="160" height="20" as="geometry" />
        </mxCell>
        <mxCell id="eg5-Ky1S5H-kkHxy2FLW-63" value="Supposed a critical bug arisen production" style="text;html=1;strokeColor=none;fillColor=none;align=left;verticalAlign=middle;whiteSpace=wrap;rounded=0;fontStyle=0;fontSize=10;" vertex="1" parent="WIyWlLk6GJQsqaUBKTNV-1">
          <mxGeometry x="530" y="430" width="82.5" height="20" as="geometry" />
        </mxCell>
        <mxCell id="eg5-Ky1S5H-kkHxy2FLW-68" value="v.1.2.1" style="text;html=1;strokeColor=none;fillColor=none;align=center;verticalAlign=middle;whiteSpace=wrap;rounded=0;fontStyle=1" vertex="1" parent="WIyWlLk6GJQsqaUBKTNV-1">
          <mxGeometry x="865" y="491" width="40" height="20" as="geometry" />
        </mxCell>
        <mxCell id="eg5-Ky1S5H-kkHxy2FLW-70" value="&lt;font style=&quot;font-size: 27px&quot;&gt;&lt;b&gt;GitFlow&lt;/b&gt;&lt;/font&gt;" style="text;html=1;strokeColor=none;fillColor=none;align=center;verticalAlign=middle;whiteSpace=wrap;rounded=0;fontSize=11;opacity=50;" vertex="1" parent="WIyWlLk6GJQsqaUBKTNV-1">
          <mxGeometry x="100" y="60" width="40" height="20" as="geometry" />
        </mxCell>
      </root>
    </mxGraphModel>
  </diagram>
</mxfile>
